<svg width="24" height="25" viewBox="0 0 24 25" fill="currentColor" xmlns="http://www.w3.org/2000/svg">
<path d="M5.25 11.7734H20.25C20.4489 11.7734 20.6397 11.8525 20.7803 11.9931C20.921 12.1338 21 12.3245 21 12.5234C21 12.7223 20.921 12.9131 20.7803 13.0538C20.6397 13.1944 20.4489 13.2734 20.25 13.2734H5.25C5.05109 13.2734 4.86032 13.1944 4.71967 13.0538C4.57902 12.9131 4.5 12.7223 4.5 12.5234C4.5 12.3245 4.57902 12.1338 4.71967 11.9931C4.86032 11.8525 5.05109 11.7734 5.25 11.7734Z" fill="#8593B0"/>
<path d="M5.56184 12.5244L11.7823 18.7434C11.9232 18.8842 12.0023 19.0752 12.0023 19.2744C12.0023 19.4735 11.9232 19.6646 11.7823 19.8054C11.6415 19.9462 11.4505 20.0253 11.2513 20.0253C11.0522 20.0253 10.8612 19.9462 10.7203 19.8054L3.97034 13.0554C3.9005 12.9857 3.84508 12.903 3.80727 12.8118C3.76946 12.7207 3.75 12.623 3.75 12.5244C3.75 12.4257 3.76946 12.3281 3.80727 12.2369C3.84508 12.1458 3.9005 12.0631 3.97034 11.9934L10.7203 5.24338C10.8612 5.10255 11.0522 5.02344 11.2513 5.02344C11.4505 5.02344 11.6415 5.10255 11.7823 5.24338C11.9232 5.38421 12.0023 5.57522 12.0023 5.77438C12.0023 5.97355 11.9232 6.16456 11.7823 6.30539L5.56184 12.5244Z" fill="#8593B0"/>
</svg>
