<svg width="26" height="22" viewBox="0 0 26 22" fill="none" xmlns="http://www.w3.org/2000/svg">
<g clip-path="url(#clip0_249_1963)">
<path fill-rule="evenodd" clip-rule="evenodd" d="M1.31592 17.1973V22.0001H4.37699V15.6345L2.87747 16.8864C2.42731 17.2622 1.83705 17.3595 1.31592 17.1973ZM5.12556 15.0096V22.0001H8.18663V12.4541L5.12556 15.0096ZM8.93999 11.8251V22.0001H12.0011V14.2796L9.0016 11.7737L8.93999 11.8251ZM12.7544 14.909V22.0001H15.8155V14.1445L14.893 14.9148C14.2758 15.4302 13.3782 15.4301 12.7611 14.9145L12.7544 14.909ZM16.564 13.5195V22.005H19.6251V10.9636L16.564 13.5195ZM20.3785 10.3346V22H23.4395V10.2538C23.3315 10.1993 23.2279 10.132 23.1306 10.0518L21.9159 9.05081L20.3785 10.3346Z" fill="#67738D"/>
<path fill-rule="evenodd" clip-rule="evenodd" d="M20.2904 4.90664L18.9291 3.50648L24.9654 1.96167L23.3633 8.06733L21.8202 6.48018L14.3524 12.9277C13.9413 13.2826 13.3322 13.2827 12.921 12.9279L8.6356 9.23027L1.90843 15.0458C1.45076 15.4414 0.759008 15.3912 0.363362 14.9335C-0.0322853 14.4758 0.0179933 13.7841 0.475662 13.3884L7.91854 6.95419C8.32963 6.59881 8.9391 6.59853 9.35052 6.95352L13.6364 10.6515L20.2904 4.90664Z" fill="#67738D"/>
</g>
<defs>
<clipPath id="clip0_249_1963">
<rect width="26" height="22" fill="white"/>
</clipPath>
</defs>
</svg>
