<svg width="36" height="36" viewBox="0 0 36 36" fill="currentColor" xmlns="http://www.w3.org/2000/svg">
<path d="M18 18C15.525 18 13.4062 17.1187 11.6437 15.3562C9.88125 13.5937 9 11.475 9 9C9 6.525 9.88125 4.40625 11.6437 2.64375C13.4062 0.88125 15.525 0 18 0C20.475 0 22.5937 0.88125 24.3562 2.64375C26.1187 4.40625 27 6.525 27 9C27 11.475 26.1187 13.5937 24.3562 15.3562C22.5937 17.1187 20.475 18 18 18ZM0 31.5V29.7C0 28.425 0.3285 27.2535 0.9855 26.1855C1.6425 25.1175 2.514 24.3015 3.6 23.7375C5.925 22.575 8.2875 21.7035 10.6875 21.123C13.0875 20.5425 15.525 20.2515 18 20.25C20.475 20.2485 22.9125 20.5395 25.3125 21.123C27.7125 21.7065 30.075 22.578 32.4 23.7375C33.4875 24.3 34.3597 25.116 35.0167 26.1855C35.6737 27.255 36.0015 28.4265 36 29.7V31.5C36 32.7375 35.5597 33.7972 34.6792 34.6792C33.7987 35.5612 32.739 36.0015 31.5 36H4.5C3.2625 36 2.2035 35.5597 1.323 34.6792C0.4425 33.7987 0.0015 32.739 0 31.5Z" fill="#B0BCFE"/>
</svg>
