<svg width="54" height="55" viewBox="0 0 54 55" fill="currentColor" xmlns="http://www.w3.org/2000/svg">
<path d="M54 27.5234C54 42.4349 41.9115 54.5234 27 54.5234C12.0885 54.5234 0 42.4349 0 27.5234C0 12.6119 12.0885 0.523438 27 0.523438C41.9115 0.523438 54 12.6119 54 27.5234Z" fill="#FFCC4D"/>
<path d="M33.0012 41.0258C33.0012 45.1703 30.3147 45.5258 27.0012 45.5258C23.6862 45.5258 21.0012 45.1703 21.0012 41.0258C21.0012 36.8843 23.6862 32.0258 27.0012 32.0258C30.3147 32.0258 33.0012 36.8843 33.0012 41.0258ZM45.0012 23.0258C44.8152 23.0258 44.6262 22.9913 44.4447 22.9178C36.6012 19.7813 33.3867 15.0563 33.2532 14.8568C32.7927 14.1668 32.9787 13.2353 33.6687 12.7763C34.3572 12.3173 35.2842 12.5003 35.7462 13.1873C35.7747 13.2278 38.6412 17.3648 45.5577 20.1308C46.3272 20.4398 46.7022 21.3113 46.3947 22.0808C46.1592 22.6688 45.5952 23.0258 45.0012 23.0258ZM9.00117 23.0258C8.40567 23.0258 7.84317 22.6688 7.60767 22.0823C7.30017 21.3128 7.67367 20.4398 8.44317 20.1323C15.3612 17.3663 18.2277 13.2293 18.2562 13.1888C18.7182 12.5048 19.6497 12.3233 20.3367 12.7838C21.0222 13.2458 21.2082 14.1713 20.7492 14.8583C20.6157 15.0578 17.4012 19.7828 9.55917 22.9193C9.37617 22.9913 9.18717 23.0258 9.00117 23.0258Z" fill="#664500"/>
<path d="M36 24.5234H42V53.0234L36 52.9544V24.5234ZM12 53.0234L18 52.9544V24.5234H12V53.0234Z" fill="#5DADEC"/>
<path d="M22.4983 27.5158C22.2733 27.5158 22.0438 27.4648 21.8293 27.3583C16.5613 24.7243 11.2243 27.3313 11.1718 27.3583C10.4293 27.7318 9.52927 27.4273 9.15877 26.6878C8.78827 25.9468 9.08827 25.0453 9.82927 24.6748C10.1023 24.5398 16.5763 21.3793 23.1718 24.6748C23.9128 25.0453 24.2128 25.9468 23.8423 26.6878C23.5783 27.2128 23.0488 27.5158 22.4983 27.5158ZM43.4983 27.5158C43.2733 27.5158 43.0438 27.4648 42.8293 27.3583C37.5598 24.7243 32.2243 27.3313 32.1718 27.3583C31.4308 27.7303 30.5308 27.4288 30.1588 26.6878C29.7883 25.9468 30.0883 25.0453 30.8293 24.6748C31.1023 24.5398 37.5808 21.3808 44.1718 24.6748C44.9128 25.0453 45.2128 25.9468 44.8423 26.6878C44.5783 27.2128 44.0488 27.5158 43.4983 27.5158Z" fill="#664500"/>
<path d="M27 54.5234C41.9117 54.5234 54 53.1803 54 51.5234C54 49.8666 41.9117 48.5234 27 48.5234C12.0883 48.5234 0 49.8666 0 51.5234C0 53.1803 12.0883 54.5234 27 54.5234Z" fill="#5DADEC"/>
<path d="M27 44.0234C29.4853 44.0234 31.5 42.6803 31.5 41.0234C31.5 39.3666 29.4853 38.0234 27 38.0234C24.5147 38.0234 22.5 39.3666 22.5 41.0234C22.5 42.6803 24.5147 44.0234 27 44.0234Z" fill="#E75A70"/>
</svg>
