<svg width="26" height="37" viewBox="0 0 26 37" fill="currentColor" xmlns="http://www.w3.org/2000/svg">
<path d="M25.8125 14.1659C24.8073 20.2634 20.7867 22.2959 19.7815 27.3772C18.1672 35.5417 13.4821 36.5234 8.72471 36.5234C0.934707 36.5234 4.84881 28.8324 1.68858 19.2471C-1.32691 10.1008 -1.04144 3.0897 8.72471 0.954555C18.0225 -1.07795 27.4549 4.20047 25.8125 14.1659Z" fill="#FCDAD8"/>
<path d="M18.7761 22.2881C18.5851 22.2881 18.3911 22.2322 18.2193 22.1173C17.7569 21.8053 17.6322 21.1753 17.9408 20.7078C18.4344 19.9588 18.9138 19.346 19.3772 18.7535C20.7794 16.9588 21.7926 15.6631 21.7926 12.1255C21.7926 9.87961 21.0066 8.08592 19.4576 6.79426C17.2533 4.95891 13.6005 4.26786 9.92365 4.99244C8.05304 5.36134 6.71316 6.22719 5.82862 7.63877C3.75698 10.9446 4.99735 16.0157 5.01042 16.0666C5.14712 16.6103 4.82145 17.1641 4.28369 17.3013C3.74291 17.4426 3.19811 17.1103 3.06241 16.5666C3.0011 16.3247 1.60091 10.5879 4.1309 6.55036C5.31096 4.66724 7.1303 3.47213 9.53968 2.99652C13.7885 2.15811 18.0795 3.01177 20.7372 5.22415C22.7415 6.8969 23.8029 9.28307 23.8029 12.1255C23.8029 16.3684 22.4188 18.1387 20.9533 20.0147C20.515 20.5757 20.0617 21.1549 19.6134 21.8358C19.4204 22.1295 19.1008 22.2881 18.7761 22.2881Z" fill="url(#paint0_linear_2208_3247)"/>
<path d="M6.29688 27.2952C5.92798 27.2952 5.57316 27.0899 5.39625 26.7332C4.84241 25.6123 5.02736 24.7058 5.27965 24.1428C5.82747 22.9213 7.20554 22.1764 8.21875 21.9081C10.2261 21.2292 11.2091 18.5138 10.6734 16.6429C10.0984 14.6368 8.00867 13.9264 4.94292 14.6896C4.41019 14.8258 3.85936 14.4925 3.72668 13.9467C3.594 13.402 3.92268 12.8512 4.46145 12.7171C9.40082 11.4833 11.9067 13.6459 12.6033 16.0788C13.4054 18.8786 12.0364 22.7627 8.78968 23.8562C8.19864 24.0148 7.34828 24.4507 7.10905 24.9832C7.0407 25.1347 6.97637 25.3857 7.19248 25.8247C7.44075 26.3267 7.23972 26.9375 6.74317 27.1885C6.60044 27.2607 6.44665 27.2952 6.29688 27.2952Z" fill="url(#paint1_linear_2208_3247)"/>
<defs>
<linearGradient id="paint0_linear_2208_3247" x1="20.1039" y1="19.3159" x2="13.9631" y2="6.15587" gradientUnits="userSpaceOnUse">
<stop stop-color="#F7BFCE"/>
<stop offset="1" stop-color="#F2AFBB"/>
</linearGradient>
<linearGradient id="paint1_linear_2208_3247" x1="7.53828" y1="13.7369" x2="0.938813" y2="19.7622" gradientUnits="userSpaceOnUse">
<stop offset="0.0382291" stop-color="#F7BFCE"/>
<stop offset="1" stop-color="#E9969E"/>
</linearGradient>
</defs>
</svg>
