<svg width="104" height="124" viewBox="0 0 104 124" fill="none" xmlns="http://www.w3.org/2000/svg">
<g clip-path="url(#clip0_247_3234)">
<path d="M23.4572 67.7801L0 109.443L19.7756 101.705L23.4572 123.046L46.9092 81.6661L23.4572 67.7801Z" fill="#F06083"/>
<path d="M80.5428 67.7801L104 109.443L84.2244 101.705L80.5428 123.046L57.0908 81.6661L80.5428 67.7801Z" fill="#F06083"/>
<path d="M55.7954 2.07472L56.78 3.31754C59.1764 6.33941 63.3562 7.29157 66.8277 5.60774L68.2544 4.91617C71.4295 3.37267 75.2225 5.1918 75.9911 8.63462L76.3377 10.1781C77.1817 13.9367 80.5326 16.6027 84.3959 16.5877H85.9835C89.5152 16.5677 92.1376 19.8451 91.3388 23.2779L90.9771 24.8214C90.103 28.5749 91.9618 32.4287 95.4483 34.0875L96.8801 34.769C100.07 36.2875 101.005 40.3768 98.7892 43.123L97.7944 44.3558C95.373 47.3576 95.373 51.6374 97.7944 54.6392L98.7892 55.872C101.005 58.6182 100.07 62.7075 96.8801 64.226L95.4483 64.9075C91.9618 66.5663 90.103 70.42 90.9771 74.1736L91.3388 75.7171C92.1376 79.1499 89.5152 82.4273 85.9835 82.4173H84.3959C80.5326 82.3973 77.1817 85.0633 76.3377 88.8219L75.9911 90.3654C75.2174 93.8032 71.4295 95.6273 68.2544 94.0838L66.8277 93.3923C63.3562 91.7084 59.1714 92.6606 56.78 95.6824L55.7954 96.9253C53.605 99.6916 49.4 99.6916 47.2046 96.9253L46.22 95.6824C43.8236 92.6606 39.6438 91.7084 36.1723 93.3923L34.7456 94.0838C31.5705 95.6273 27.7775 93.8082 27.0089 90.3654L26.6623 88.8219C25.8183 85.0633 22.4674 82.3973 18.6041 82.4123H17.0165C13.4848 82.4323 10.8624 79.1549 11.6612 75.7221L12.0229 74.1786C12.897 70.4251 11.0382 66.5713 7.55168 64.9125L6.11989 64.231C2.92977 62.7125 1.99534 58.6232 4.21084 55.877L5.20555 54.6442C7.62703 51.6424 7.62703 47.3626 5.20555 44.3608L4.21084 43.128C1.99534 40.3818 2.92977 36.2925 6.11989 34.774L7.55168 34.0925C11.0382 32.4337 12.897 28.58 12.0229 24.8264L11.6612 23.2829C10.8624 19.8501 13.4848 16.5727 17.0165 16.5827H18.6041C22.4674 16.6027 25.8183 13.9367 26.6623 10.1781L27.0089 8.63462C27.7826 5.19681 31.5705 3.37267 34.7456 4.91617L36.1723 5.60774C39.6438 7.29157 43.8286 6.33941 46.22 3.31754L47.2046 2.07472C49.395 -0.691572 53.6 -0.691572 55.7954 2.07472Z" fill="#FCC64F"/>
<path d="M51.5 81C69.4493 81 84 66.6731 84 49C84 31.3269 69.4493 17 51.5 17C33.5507 17 19 31.3269 19 49C19 66.6731 33.5507 81 51.5 81Z" fill="#FFDC64"/>
<path d="M57.1284 66.005C57.1284 67.7209 56.7615 69.1122 56.0275 70.1788C55.2997 71.2513 54.2171 71.7846 52.7921 71.7846C51.4771 71.7846 50.4495 71.2513 49.6972 70.1788C48.945 69.1122 48.5719 67.7151 48.5719 66.005V38.5795C48.1621 38.9621 47.7768 39.3041 47.4159 39.6113C47.0612 39.9244 46.6208 40.3128 46.0948 40.7881C45.5688 41.2635 45.055 41.6345 44.5474 41.8953C44.0398 42.162 43.4709 42.2895 42.8287 42.2895C41.7034 42.2895 40.7859 41.8606 40.0703 41.0026C39.3547 40.1446 39 39.0026 39 37.5766C39 35.4839 39.7706 33.9071 41.3058 32.8636C42.8838 31.8144 44.2294 30.91 45.3547 30.1506C46.4801 29.3912 47.6422 28.6028 48.841 27.7913C49.5872 27.3159 50.3333 26.8985 51.0612 26.5391C51.789 26.1797 52.474 26 53.1162 26C54.315 26 55.2813 26.3942 56.0092 27.1826C56.7431 27.9652 57.1101 29.3333 57.1101 31.2869V65.9992L57.1284 66.005Z" fill="#DF9154"/>
</g>
<defs>
<clipPath id="clip0_247_3234">
<rect width="104" height="124" fill="white"/>
</clipPath>
</defs>
</svg>
