<svg width="54" height="55" viewBox="0 0 54 55" fill="currentColor" xmlns="http://www.w3.org/2000/svg">
<path d="M54 27.5234C54 42.4349 41.9115 54.5234 27 54.5234C12.0885 54.5234 0 42.4349 0 27.5234C0 12.6119 12.0885 0.523438 27 0.523438C41.9115 0.523438 54 12.6119 54 27.5234Z" fill="#FFCC4D"/>
<path d="M26.9988 33.2963C22.5498 33.2963 19.5963 32.7773 15.9453 32.0678C15.1098 31.9088 13.4883 32.0678 13.4883 34.5248C13.4883 39.4373 19.1328 45.5783 26.9988 45.5783C34.8648 45.5783 40.5093 39.4373 40.5093 34.5248C40.5093 32.0678 38.8863 31.9073 38.0523 32.0678C34.4013 32.7773 31.4493 33.2963 26.9988 33.2963Z" fill="#664500"/>
<path d="M24.977 5.44861C23.6885 1.80211 19.691 -0.111895 16.043 1.17361C13.829 1.95361 12.2615 3.74011 11.651 5.82961C9.86454 4.58611 7.52454 4.17961 5.31354 4.95961C1.66854 6.2466 -0.248464 10.2471 1.04004 13.8936C1.22304 14.4096 1.46604 14.8881 1.74804 15.3306C4.67454 20.7036 13.13 24.4806 18.2495 24.5271C22.205 21.2766 26.4185 13.0296 25.3265 7.0116C25.2695 6.4896 25.157 5.9646 24.977 5.44861ZM29.027 5.44861C30.3155 1.80211 34.3145 -0.111895 37.961 1.17361C40.175 1.95361 41.7425 3.74011 42.3545 5.82961C44.141 4.58611 46.481 4.17961 48.692 4.95961C52.337 6.2466 54.2525 10.2471 52.967 13.8936C52.7825 14.4096 52.541 14.8881 52.2575 15.3306C49.331 20.7036 40.8755 24.4806 35.7545 24.5271C31.799 21.2766 27.587 13.0296 28.679 7.0116C28.7345 6.4896 28.847 5.9646 29.027 5.44861Z" fill="url(#paint0_linear_2208_3014)"/>
<defs>
<linearGradient id="paint0_linear_2208_3014" x1="27.0029" y1="24.5271" x2="27.0029" y2="0.773438" gradientUnits="userSpaceOnUse">
<stop stop-color="#DD2E44"/>
<stop offset="1" stop-color="#FA3E64"/>
</linearGradient>
</defs>
</svg>
