<svg width="98" height="33" viewBox="0 0 98 33" fill="none" xmlns="http://www.w3.org/2000/svg">
<rect width="98" height="33" rx="4" fill="#FB4A59"/>
<path d="M14.9225 21.805C17.8524 21.805 20.2275 19.4299 20.2275 16.5C20.2275 13.5701 17.8524 11.195 14.9225 11.195C11.9926 11.195 9.61749 13.5701 9.61749 16.5C9.61749 19.4299 11.9926 21.805 14.9225 21.805Z" fill="white"/>
<path d="M32.2275 26.3975V6.5975H36.3375V22.9975H44.8575V26.4025H32.2325L32.2275 26.3975Z" fill="white"/>
<path d="M51.6124 6.5975V26.3975H47.5024V6.5975H51.6124Z" fill="white"/>
<path d="M58.4175 6.5975L63.2425 21.7075H63.4275L68.2625 6.5975H72.8275L65.9825 26.3975H60.6925L53.8475 6.5975H58.4225H58.4175Z" fill="white"/>
<path d="M75.0575 26.3975V6.5975H88.3425V10.0025H79.1675V14.7975H87.6575V18.1925H79.1675V22.9975H88.3825V26.4025H75.0575V26.3975Z" fill="white"/>
</svg>
