<svg width="1162" height="182" viewBox="0 0 1162 182" fill="none" xmlns="http://www.w3.org/2000/svg">
<path d="M99.0723 179.001L49.2496 121.647H44.514V167.001C44.514 173.629 39.1414 179.001 32.514 179.001H12C5.37258 179.001 0 173.629 0 167.001V35.4824C0 28.855 5.37258 23.4824 12 23.4824H70.2753C83.156 23.4824 94.0477 25.6884 103.045 30.0083C111.948 34.3283 118.767 40.3027 123.313 47.8397C127.859 55.3767 130.132 63.9247 130.132 73.3C130.132 83.8701 127.102 93.1535 121.135 101.242C115.168 109.238 106.36 114.937 94.9001 118.338L131.223 159.008C138.129 166.74 132.641 179.001 122.273 179.001H81.2618H99.0723ZM44.514 92.0505H66.5816C72.6431 92.0505 77.1892 90.6718 80.22 87.8224C83.2507 85.065 84.7661 81.0208 84.7661 75.6897C84.7661 70.7264 83.2507 66.7741 80.1252 63.9247C76.9998 61.0754 72.5484 59.6047 66.5816 59.6047H44.514V92.0505Z" fill="#0028FD"/>
<path d="M271.317 125.875H187.025C187.498 132.677 189.393 137.641 192.802 140.949C196.212 144.258 200.568 145.913 205.872 145.913C210.51 145.913 214.327 144.645 217.323 142.086C220.796 139.119 224.676 136.17 229.244 136.17H254.216C261.942 136.17 267.705 143.488 263.953 150.242C262.245 153.318 260.219 156.228 257.868 158.965C252.186 165.582 244.988 170.913 236.369 174.774C227.75 178.634 218.185 180.473 207.767 180.473C195.17 180.473 183.994 177.899 174.239 172.752C164.484 167.605 156.812 160.251 151.319 150.692C145.826 141.133 142.984 129.92 142.984 116.96C142.984 104 145.731 92.7863 151.129 83.3192C156.623 73.852 164.2 66.4988 173.955 61.3516C183.71 56.2044 194.981 53.6309 207.672 53.6309C220.363 53.6309 231.349 56.1125 241.105 61.1678C250.86 66.2231 258.342 73.3005 263.835 82.6758C269.328 92.051 271.98 102.989 271.98 115.673C271.98 119.074 271.791 122.475 271.317 125.784V125.875ZM226.519 104.919C226.519 99.588 224.72 95.4519 221.026 92.4187C217.427 89.3855 212.881 87.9149 207.388 87.9149C201.894 87.9149 197.443 89.3855 193.939 92.2349C190.434 95.0842 188.161 99.3123 187.12 104.919H226.425H226.519Z" fill="#0028FD"/>
<path d="M290.071 83.5029C294.807 73.9438 301.342 66.5907 309.581 61.4435C317.821 56.2963 327.008 53.7227 337.237 53.7227C346.045 53.7227 353.622 55.3771 359.968 58.778C366.313 62.1788 371.238 66.6826 374.742 72.4732V67.2852C374.742 60.6578 380.115 55.2852 386.742 55.2852H407.256C413.884 55.2852 419.256 60.6578 419.256 67.2852V167.002C419.256 173.629 413.884 179.002 407.256 179.002H386.742C380.115 179.002 374.742 173.629 374.742 167.002V161.814C371.238 167.513 366.313 172.108 359.873 175.509C353.432 178.91 345.856 180.564 337.237 180.564C327.103 180.564 317.916 177.991 309.581 172.844C301.247 167.696 294.807 160.343 290.071 150.692C285.335 141.041 282.873 129.828 282.873 117.052C282.873 104.276 285.241 93.062 290.071 83.5029ZM362.018 100.301C357.567 95.7054 352.073 93.4994 345.538 93.4994C339.003 93.4994 333.321 95.7054 328.964 100.209C324.607 104.713 322.334 110.963 322.334 119.052C322.334 127.14 324.513 133.298 328.964 137.894C333.415 142.49 338.909 144.88 345.538 144.88C352.168 144.88 357.567 142.582 362.018 138.078C366.469 133.482 368.742 127.232 368.742 119.144C368.742 111.055 366.469 104.989 362.018 100.393V100.301Z" fill="#0028FD"/>
<path d="M445.68 83.5029C451.173 73.9438 458.75 66.5907 468.506 61.4435C478.261 56.2963 489.437 53.7227 502.033 53.7227C518.229 53.7227 531.867 58.0426 542.948 66.5907C550.399 72.4003 556.052 79.7059 559.935 88.5635C562.991 95.5358 557.205 102.621 549.592 102.621H525.69C520.55 102.621 516.388 98.9585 512.89 95.1917C509.978 92.0562 506.075 90.4884 501.181 90.4884C495.593 90.4884 491.141 92.6943 487.921 97.1981C484.701 101.702 482.996 108.228 482.996 116.96C482.996 125.692 484.606 132.217 487.921 136.813C491.141 141.409 495.593 143.615 501.181 143.615C506.093 143.615 509.983 142.109 512.85 139.097C516.458 135.306 520.65 131.482 525.884 131.482H549.556C557.18 131.482 562.964 138.587 559.879 145.56C555.998 154.333 550.364 161.639 542.948 167.421C531.867 176.061 518.229 180.472 502.033 180.472C489.437 180.472 478.261 177.899 468.506 172.752C458.75 167.604 451.079 160.251 445.68 150.692C440.282 141.133 437.535 129.92 437.535 116.96C437.535 104 440.282 92.9701 445.68 83.411V83.5029Z" fill="#0028FD"/>
<path d="M646.058 142.143C652.686 142.143 658.058 147.516 658.058 154.143V167.001C658.058 173.628 652.686 179.001 646.058 179.001H638.737C606.157 179.001 589.866 163.376 589.866 132.033V91.2228H586.145C579.517 91.2228 574.145 85.8503 574.145 79.2228V67.2844C574.145 60.6569 579.517 55.2844 586.145 55.2844H589.866V37.3203C589.866 30.6929 595.239 25.3203 601.866 25.3203H622.665C629.292 25.3203 634.665 30.6929 634.665 37.3203V55.2844H645.869C652.496 55.2844 657.869 60.6569 657.869 67.2844V79.2228C657.869 85.8503 652.496 91.2228 645.869 91.2228H634.665V132.676C634.665 136.077 635.422 138.467 637.032 139.937C638.642 141.408 641.294 142.143 645.083 142.143H646.058Z" fill="#0028FD"/>
<path d="M724.548 85.7992C719.812 81.5712 717.35 76.2401 717.35 69.8061C717.35 63.3721 719.717 57.9492 724.548 53.7211C729.378 49.493 735.629 47.2871 743.49 47.2871C751.351 47.2871 757.507 49.4011 762.243 53.7211C766.978 58.0411 769.44 63.3721 769.44 69.8061C769.44 76.2401 767.073 81.3873 762.243 85.7073C757.412 90.0273 751.256 92.1413 743.49 92.1413C735.724 92.1413 729.283 90.0273 724.548 85.8911V85.7992ZM724.548 174.497C719.812 170.268 717.35 164.937 717.35 158.503C717.35 152.069 719.717 146.646 724.548 142.418C729.283 138.19 735.629 135.984 743.49 135.984C751.351 135.984 757.507 138.098 762.243 142.418C766.978 146.646 769.44 152.069 769.44 158.503C769.44 164.937 767.073 170.085 762.243 174.405C757.507 178.633 751.256 180.839 743.49 180.839C735.724 180.839 729.283 178.725 724.548 174.588V174.497Z" fill="#0028FD"/>
<path d="M1161.21 167.001C1161.21 173.629 1155.84 179.001 1149.21 179.001H1123.04C1119.07 179.001 1115.36 177.04 1113.12 173.762L1057.41 92.0505V167.001C1057.41 173.629 1052.04 179.001 1045.41 179.001H1024.89C1018.27 179.001 1012.89 173.629 1012.89 167.001V35.4824C1012.89 28.855 1018.27 23.4824 1024.89 23.4824H1051.02C1055.01 23.4824 1058.75 25.4683 1060.98 28.7802L1116.7 111.536V35.4824C1116.7 28.855 1122.07 23.4824 1128.7 23.4824H1149.21C1155.84 23.4824 1161.21 28.855 1161.21 35.4824V167.001Z" fill="#0028FD"/>
<rect x="894.348" width="34" height="52" rx="17" fill="url(#paint0_linear_2284_12309)"/>
<path fill-rule="evenodd" clip-rule="evenodd" d="M933.525 67.901C935.202 69.1224 936.767 70.5191 938.222 72.0929C944.757 79.2623 948.072 89.2809 948.072 101.322C948.072 113.362 944.852 123.013 938.222 130.183C931.687 137.444 922.879 141.029 911.324 141.029C899.769 141.029 890.772 137.536 884.237 130.367C877.702 123.197 874.482 113.638 874.482 101.322C874.482 89.0052 877.702 79.2623 884.237 72.0929C885.957 70.2301 887.861 68.6093 889.94 67.2321L874.797 29.2734C873.125 30.0381 871.474 30.861 869.841 31.7426C857.244 38.4523 847.3 47.9195 839.912 60.0522C832.62 72.1849 828.926 85.8801 828.926 101.23C828.926 116.579 832.525 130.275 839.912 142.407C847.3 154.54 857.244 164.099 869.841 170.901C882.437 177.794 896.17 181.195 911.229 181.195C926.288 181.195 940.022 177.702 952.618 170.901C965.12 164.007 975.064 154.54 982.357 142.407C989.65 130.275 993.249 116.579 993.249 101.23C993.249 85.8801 989.65 72.1849 982.357 60.0522C975.064 47.9195 965.214 38.5442 952.713 31.7426C951.431 31.0546 950.134 30.4015 948.823 29.7832L933.525 67.901Z" fill="url(#paint1_linear_2284_12309)"/>
<defs>
<linearGradient id="paint0_linear_2284_12309" x1="911.348" y1="2.89247e-09" x2="911.496" y2="104" gradientUnits="userSpaceOnUse">
<stop stop-color="#B0BCFE"/>
<stop offset="1" stop-color="#0028FD"/>
</linearGradient>
<linearGradient id="paint1_linear_2284_12309" x1="911.087" y1="21.6318" x2="911.087" y2="181.195" gradientUnits="userSpaceOnUse">
<stop stop-color="#0028FD"/>
<stop offset="1" stop-color="#0028FD"/>
</linearGradient>
</defs>
</svg>
