<svg width="22" height="16" viewBox="0 0 22 16" fill="none" xmlns="http://www.w3.org/2000/svg">
<g clip-path="url(#clip0_247_3261)">
<path d="M13.7178 8.96973H16.4901C19.5297 8.96973 22 11.3843 22 14.3661V14.8606C22 15.4861 21.4802 16 20.8366 16H9.37125C8.73264 16 8.20789 15.4909 8.20789 14.8606V14.3661C8.20789 11.3891 10.6732 8.96973 13.7178 8.96973Z" fill="#8593B0"/>
<path d="M5.5099 8.96973C2.4703 8.96973 0 11.3843 0 14.3661V14.8606C0 15.4909 0.519802 16 1.16337 16H5.77228C6.07426 16 6.30198 15.7382 6.25248 15.4473C6.04456 14.1915 5.80693 11.0837 8.05446 9.30427C8.19802 9.19276 8.11881 8.96973 7.93565 8.96973H5.50495H5.5099Z" fill="#8593B0"/>
<path d="M15.104 7.79636C17.3022 7.79636 19.0842 6.05109 19.0842 3.89818C19.0842 1.74528 17.3022 0 15.104 0C12.9058 0 11.1238 1.74528 11.1238 3.89818C11.1238 6.05109 12.9058 7.79636 15.104 7.79636Z" fill="#8593B0"/>
<path d="M5.99009 7.79636C8.18829 7.79636 9.97028 6.05109 9.97028 3.89818C9.97028 1.74528 8.18829 0 5.99009 0C3.79188 0 2.00989 1.74528 2.00989 3.89818C2.00989 6.05109 3.79188 7.79636 5.99009 7.79636Z" fill="#8593B0"/>
</g>
<defs>
<clipPath id="clip0_247_3261">
<rect width="22" height="16" fill="white"/>
</clipPath>
</defs>
</svg>
