<svg width="41" height="41" viewBox="0 0 41.5 41" fill="none" xmlns="http://www.w3.org/2000/svg">
<rect width="41" height="41" rx="20.5" fill="#0028FD"/>
<path fill-rule="evenodd" clip-rule="evenodd" d="M18.5 15.25C18.5 14.9757 18.561 14.799 18.6514 14.6963C18.7018 14.639 19.0641 14.25 20.5 14.25C21.2548 14.25 21.6702 14.5582 21.9725 15.0017C22.3333 15.5309 22.5 16.2459 22.5 16.75C22.5 17.222 22.3791 17.7031 22.1775 18.0012C22.0901 18.1305 21.9967 18.2135 21.8906 18.2702C21.7861 18.326 21.5909 18.3983 21.2389 18.3977C19.8047 18.3954 18 19.4635 18 21.4966V23.25C18 24.3546 18.8954 25.25 20 25.25C21.1046 25.25 22 24.3546 22 23.25V22.3514C23.5734 22.1541 24.7463 21.3429 25.4908 20.2421C26.2771 19.0795 26.5 17.7347 26.5 16.75C26.5 15.5874 26.1667 14.0525 25.2775 12.7483C24.3298 11.3584 22.7452 10.25 20.5 10.25C18.3359 10.25 16.6982 10.861 15.6486 12.0537C14.639 13.201 14.5 14.5243 14.5 15.25C14.5 16.3546 15.3954 17.25 16.5 17.25C17.6046 17.25 18.5 16.3546 18.5 15.25ZM20.25 30.75C21.2165 30.75 22 29.9665 22 29C22 28.0335 21.2165 27.25 20.25 27.25C19.2835 27.25 18.5 28.0335 18.5 29C18.5 29.9665 19.2835 30.75 20.25 30.75Z" fill="white"/>
</svg>
