<svg width="24" height="24" viewBox="0 0 24 24" fill="none" xmlns="http://www.w3.org/2000/svg">
<path d="M13.2936 0C13.6464 0 13.962 0.219598 14.0808 0.548395L14.9279 2.89677C15.2311 2.97197 15.4927 3.04877 15.7127 3.12717C15.9527 3.21277 16.2647 3.34477 16.6487 3.52317L18.6214 2.47918C18.7823 2.39347 18.9668 2.36246 19.1469 2.39082C19.327 2.41918 19.493 2.50537 19.6198 2.63638L21.3549 4.43036C21.5853 4.66916 21.6501 5.01835 21.5205 5.32315L20.5953 7.49153C20.7481 7.77313 20.8713 8.01472 20.9649 8.21632C21.0657 8.43472 21.1905 8.73872 21.3393 9.12831L23.4956 10.0523C23.8196 10.1903 24.02 10.5143 23.9984 10.8611L23.84 13.3511C23.8292 13.5128 23.7711 13.6679 23.673 13.7969C23.5749 13.926 23.441 14.0234 23.288 14.0771L21.2457 14.8031C21.1873 15.0847 21.1257 15.3271 21.0609 15.5303C20.9561 15.8452 20.8367 16.1551 20.7033 16.459L21.7293 18.727C21.8023 18.8863 21.8221 19.0648 21.7858 19.2361C21.7495 19.4075 21.659 19.5627 21.5277 19.6786L19.5766 21.421C19.4483 21.5357 19.2879 21.6083 19.1171 21.6289C18.9463 21.6495 18.7732 21.6171 18.6214 21.5362L16.6103 20.4706C16.2959 20.6379 15.9713 20.785 15.6383 20.911L14.7599 21.2398L13.98 23.3998C13.9216 23.5576 13.8172 23.6942 13.6803 23.792C13.5433 23.8898 13.3802 23.9442 13.212 23.9482L10.9321 23.9998C10.7593 24.0038 10.5896 23.9544 10.4459 23.8584C10.3023 23.7625 10.1917 23.6245 10.1293 23.4634L9.21012 21.031C8.89659 20.9236 8.58608 20.8076 8.27895 20.683C8.02783 20.5743 7.78049 20.457 7.53738 20.3314L5.25746 21.3058C5.10729 21.3702 4.9416 21.3894 4.78068 21.3611C4.61977 21.3327 4.47061 21.258 4.35149 21.1462L2.66435 19.5634C2.53827 19.4464 2.45239 19.2925 2.41899 19.1238C2.38559 18.955 2.40637 18.7801 2.47836 18.6238L3.45872 16.4878C3.3288 16.2346 3.20793 15.9769 3.09633 15.7151C2.96635 15.3944 2.84629 15.0699 2.73635 14.7419L0.588421 14.0879C0.413828 14.0351 0.261545 13.9261 0.155223 13.7779C0.0489015 13.6297 -0.00550937 13.4506 0.000440948 13.2683L0.084438 10.9631C0.090678 10.8128 0.137766 10.667 0.220643 10.5414C0.30352 10.4158 0.419051 10.3152 0.554822 10.2503L2.80834 9.16791C2.91234 8.78552 3.00434 8.48632 3.08433 8.27032C3.19755 7.98023 3.32327 7.69516 3.46112 7.41593L2.48435 5.35195C2.40967 5.19533 2.38685 5.01897 2.41922 4.8485C2.45158 4.67802 2.53745 4.52231 2.66435 4.40396L4.34909 2.81277C4.46703 2.70112 4.61482 2.62605 4.77455 2.59666C4.93427 2.56727 5.0991 2.58482 5.24906 2.64718L7.52658 3.58797C7.77777 3.42077 8.00656 3.28317 8.21296 3.17517C8.45855 3.04557 8.78814 2.90717 9.20172 2.75997L9.99369 0.550795C10.0528 0.389507 10.16 0.250231 10.3008 0.151744C10.4415 0.0532573 10.6091 0.000295928 10.7809 0L13.2936 0ZM12.0288 8.42272C10.0285 8.42272 8.40735 10.0247 8.40735 12.0023C8.40735 13.9799 10.0285 15.5831 12.0288 15.5831C14.0292 15.5831 15.6491 13.9799 15.6491 12.0023C15.6491 10.0247 14.0292 8.42272 12.0288 8.42272Z" fill="#4D586F"/>
</svg>
