<svg width="24" height="25" viewBox="0 0 24 25" fill="currentColor" xmlns="http://www.w3.org/2000/svg">
<path d="M23.097 4.4494H17.132V3.38087C17.1272 2.62427 16.8074 1.89978 16.2417 1.36386C15.9598 1.09688 15.6248 0.885172 15.2559 0.740935C14.887 0.596698 14.4915 0.522781 14.0922 0.523442H9.94595C9.54666 0.522781 9.15117 0.596698 8.78227 0.740935C8.41338 0.885172 8.07835 1.09688 7.7965 1.36386C7.23537 1.90172 6.92026 2.62598 6.91892 3.38087V4.4494H0.953895C0.700906 4.4494 0.458279 4.54427 0.279389 4.71314C0.100499 4.88201 0 5.11104 0 5.34985C0 5.58867 0.100499 5.8177 0.279389 5.98657C0.458279 6.15544 0.700906 6.2503 0.953895 6.2503H2.75994V20.3694C2.75475 20.9166 2.86448 21.4593 3.08278 21.9662C3.30108 22.4732 3.62363 22.9343 4.0318 23.3228C4.86401 24.0926 5.98275 24.5236 7.14785 24.5234H16.8394C18.0045 24.5236 19.1233 24.0926 19.9555 23.3228C20.3636 22.9343 20.6862 22.4732 20.9045 21.9662C21.1228 21.4593 21.2325 20.9166 21.2273 20.3694V6.2503H23.0461C23.2991 6.2503 23.5417 6.15544 23.7206 5.98657C23.8995 5.8177 24 5.58867 24 5.34985C24 5.11104 23.8995 4.88201 23.7206 4.71314C23.5417 4.54427 23.2991 4.4494 23.0461 4.4494H23.097ZM8.85215 3.38087C8.8522 3.24229 8.88147 3.10511 8.93824 2.97731C8.99501 2.84952 9.07816 2.73366 9.18283 2.6365C9.3931 2.4402 9.67568 2.32833 9.97138 2.32434H14.1176C14.2665 2.32347 14.414 2.35062 14.5516 2.40422C14.6892 2.45782 14.8141 2.53679 14.9189 2.6365C15.1269 2.83498 15.2454 3.10174 15.2496 3.38087V4.4494H8.8903L8.85215 3.38087ZM10.5437 18.5204C10.5437 18.8389 10.4097 19.1442 10.1712 19.3694C9.93268 19.5945 9.60918 19.721 9.27186 19.721C8.93454 19.721 8.61104 19.5945 8.37252 19.3694C8.134 19.1442 8 18.8389 8 18.5204V12.0012C8 11.6828 8.134 11.3774 8.37252 11.1522C8.61104 10.9271 8.93454 10.8006 9.27186 10.8006C9.60918 10.8006 9.93268 10.9271 10.1712 11.1522C10.4097 11.3774 10.5437 11.6828 10.5437 12.0012V18.5204ZM16.089 18.5204C16.089 18.8389 15.955 19.1442 15.7165 19.3694C15.478 19.5945 15.1545 19.721 14.8172 19.721C14.4799 19.721 14.1564 19.5945 13.9178 19.3694C13.6793 19.1442 13.5453 18.8389 13.5453 18.5204V12.0012C13.5453 11.6828 13.6793 11.3774 13.9178 11.1522C14.1564 10.9271 14.4799 10.8006 14.8172 10.8006C15.1545 10.8006 15.478 10.9271 15.7165 11.1522C15.955 11.3774 16.089 11.6828 16.089 12.0012V18.5204Z" fill="white"/>
</svg>
