<svg width="39" height="35" viewBox="5 3 42 36" fill="none" xmlns="http://www.w3.org/2000/svg">
<path d="M23.4019 4.5C24.5566 2.5 27.4434 2.5 28.5981 4.5L45.9186 34.5C47.0733 36.5 45.6299 39 43.3205 39H8.67949C6.37009 39 4.92671 36.5 6.08142 34.5L23.4019 4.5Z" fill="#EE404C"/>
<path fill-rule="evenodd" clip-rule="evenodd" d="M26 13C24.8954 13 24 13.8954 24 15V24C24 25.1046 24.8954 26 26 26C27.1046 26 28 25.1046 28 24V15C28 13.8954 27.1046 13 26 13ZM26 32.6667C27.1046 32.6667 28 31.7712 28 30.6667C28 29.5621 27.1046 28.6667 26 28.6667C24.8954 28.6667 24 29.5621 24 30.6667C24 31.7712 24.8954 32.6667 26 32.6667Z" fill="white"/>
</svg>
