<svg width="36" height="37" viewBox="0 0 36 37" fill="currentColor" xmlns="http://www.w3.org/2000/svg">
<path d="M36 15.5234C36 11.3684 32.831 7.95544 28.779 7.56344C27.884 3.53644 24.297 0.523438 20 0.523438C15.029 0.523438 11 4.08344 11 9.05444C11 10.2104 11.25 11.9604 12.121 12.8394C8.859 13.0234 4.094 13.1234 0 12.5384C0 12.5384 4.816 16.3694 15.357 16.5234C15.206 16.8364 15.103 17.9534 15.051 18.3094C14.802 18.3124 14.456 18.3184 14 18.3184C6 18.3184 0 17.5234 0 17.5234C0 17.5234 3 20.7574 15.406 21.6294C15 21.7574 15 23.5234 15 23.5234C7 23.5234 0 22.5234 0 22.5234C3.362 25.3254 6.724 26.5564 9.03 27.0974C9.019 27.2394 9 27.3784 9 27.5234C9 30.8364 11.686 32.5234 15 32.5234C15.487 32.5234 15.958 32.4594 16.412 32.3494C18.009 34.8564 20.807 36.5234 24 36.5234C28.971 36.5234 33 32.4944 33 27.5234C33 25.7354 32.473 24.0744 31.573 22.6724C34.195 21.3604 36 18.6554 36 15.5234Z" fill="url(#paint0_linear_2208_3133)"/>
<defs>
<linearGradient id="paint0_linear_2208_3133" x1="0" y1="18.5234" x2="36" y2="18.5234" gradientUnits="userSpaceOnUse">
<stop offset="0.36" stop-color="#D6EBFB"/>
<stop offset="1" stop-color="#0094FF"/>
</linearGradient>
</defs>
</svg>
