<svg width="28" height="39" viewBox="0 0 28 39" fill="currentColor" xmlns="http://www.w3.org/2000/svg">
<path d="M28 12.4256C28 19.4437 21.6364 20.5336 21.6364 27.0744C21.6364 30.451 17.6616 30.7355 14.6364 30.7355C12.0235 30.7355 6.25418 29.8864 6.25418 27.0722C6.25418 20.5347 0 19.4448 0 12.4256C0 5.85215 6.72636 0.523438 14.1056 0.523438C21.4875 0.523438 28 5.85215 28 12.4256Z" fill="url(#paint0_linear_2208_3163)"/>
<path d="M19.3061 35.7946C19.3061 36.6971 16.4629 38.5196 14.0027 38.5196C11.5425 38.5196 8.69922 36.6971 8.69922 35.7946C8.69922 34.892 11.5412 35.2496 14.0027 35.2496C16.4629 35.2496 19.3061 34.892 19.3061 35.7946Z" fill="#CCD6DD"/>
<path d="M19.9894 11.5774C19.4918 11.1513 18.6874 11.1513 18.1898 11.5774L13.9987 15.1666L9.80763 11.5774C9.30999 11.1513 8.50563 11.1513 8.00799 11.5774C7.51036 12.0036 7.51036 12.6924 8.00799 13.1186L12.726 17.1589V28.6969C12.726 29.2996 13.2962 29.7868 13.9987 29.7868C14.7013 29.7868 15.2714 29.2996 15.2714 28.6969V17.1589L19.9894 13.1186C20.4871 12.6924 20.4871 12.0036 19.9894 11.5774Z" fill="#FFCC4D"/>
<path d="M21.636 34.1573C21.636 35.3606 20.4956 36.3373 19.0906 36.3373H8.90874C7.50364 36.3373 6.36328 35.3606 6.36328 34.1573V27.6172H21.636V34.1573Z" fill="#99AAB5"/>
<path d="M6.36107 35.2528C5.75016 35.2528 5.21052 34.8746 5.10743 34.3415C4.99161 33.7486 5.45998 33.1861 6.15361 33.088L21.4263 30.908C22.1187 30.8012 22.7754 31.2099 22.89 31.804C23.0058 32.397 22.5374 32.9594 21.8438 33.0575L6.57107 35.2375C6.50107 35.2484 6.42979 35.2528 6.36107 35.2528ZM6.36107 30.8927C5.75016 30.8927 5.21052 30.5145 5.10743 29.9815C4.99161 29.3885 5.45998 28.8261 6.15361 28.728L21.4263 26.548C22.1187 26.4422 22.7754 26.8499 22.89 27.4439C23.0058 28.0369 22.5374 28.5994 21.8438 28.6975L6.57107 30.8775C6.50107 30.8884 6.42979 30.8927 6.36107 30.8927Z" fill="#CCD6DD"/>
<defs>
<linearGradient id="paint0_linear_2208_3163" x1="14" y1="30.7355" x2="18.2338" y2="2.47954" gradientUnits="userSpaceOnUse">
<stop stop-color="#FFD983"/>
<stop offset="1" stop-color="#FFEAB9"/>
</linearGradient>
</defs>
</svg>
