<svg width="54" height="55" viewBox="0 0 54 55" fill="currentColor" xmlns="http://www.w3.org/2000/svg">
<path d="M48.4675 37.0855C47.4235 35.5665 48.0064 33.3707 47.7465 30.9463C47.4791 26.9909 45.7817 23.1588 42.4891 20.0938L31.2743 9.65325C31.2743 9.65325 29.0647 7.59432 27.0068 9.80815C24.9519 12.0205 27.163 14.0794 27.163 14.0794L31.9007 18.492L36.0075 22.3151C36.0075 22.3151 34.9785 23.422 30.4331 19.1899L15.0815 4.89321C15.0815 4.89321 12.8689 2.83579 10.8125 5.04962C8.75756 7.26195 10.9672 9.32087 10.9672 9.32087L25.4836 22.84C25.4521 22.8099 24.3856 23.8807 24.3661 23.8627L8.83417 9.39908C8.83417 9.39908 6.62305 7.34015 4.56666 9.55398C2.51026 11.7678 4.72137 13.8252 4.72137 13.8252L20.2548 28.2918C20.2728 28.3099 19.2724 29.4409 19.3024 29.4695L5.90354 16.9896C5.90354 16.9896 3.69242 14.9306 1.63603 17.1445C-0.42037 19.3583 1.79075 21.4172 1.79075 21.4172L16.0368 34.6822C16.1675 34.804 15.2858 36.0478 15.4495 36.1997L5.18403 26.6405C5.18403 26.6405 2.97291 24.5816 0.916513 26.7969C-1.13988 29.0107 1.07123 31.0697 1.07123 31.0697L17.8153 46.6552C20.6108 49.2586 23.4813 50.5761 26.9422 51.0588C27.6467 51.1566 28.5479 51.1566 28.9175 51.2032C30.0846 51.3506 31.1091 51.7657 32.4805 52.6079C34.2455 53.6908 36.8937 54.1419 38.4154 52.5132L43.6037 46.956L48.3939 41.8245C49.9141 40.1972 49.6422 38.7925 48.4675 37.0855Z" fill="url(#paint0_linear_2208_2980)"/>
<path d="M2.88616 53.1368C2.50162 53.1368 2.11708 52.9894 1.82417 52.6961C1.23684 52.1081 1.23684 51.1576 1.82417 50.5695L7.15818 45.232C7.74551 44.6439 8.69485 44.6439 9.28218 45.232C9.8695 45.82 9.8695 46.7705 9.28218 47.3586L3.94816 52.6976C3.65525 52.9909 3.2707 53.1368 2.88616 53.1368ZM13.0194 54.5234C12.8557 54.5234 12.6875 54.4964 12.5222 54.4392C11.7396 54.1655 11.3266 53.3082 11.6014 52.5232L13.06 48.3527C13.3334 47.5691 14.1911 47.157 14.9737 47.4292C15.7563 47.7045 16.1694 48.5617 15.8945 49.3453L14.4359 53.5158C14.2196 54.1354 13.6398 54.5234 13.0194 54.5234ZM1.50271 42.9926C0.883841 42.9926 0.304024 42.606 0.0862176 41.9894C-0.190172 41.2058 0.219906 40.3471 1.00251 40.0704L4.75029 38.7454C5.5359 38.4747 6.3906 38.8822 6.66699 39.6628C6.94338 40.4463 6.5333 41.3051 5.7507 41.5818L2.00292 42.9068C1.83618 42.9655 1.66795 42.9926 1.50271 42.9926ZM45.7551 10.2558C45.3705 10.2558 44.986 10.1084 44.6931 9.81515C44.1057 9.2271 44.1057 8.27509 44.6931 7.68704L50.0286 2.34797C50.6159 1.76143 51.5653 1.76143 52.1526 2.34797C52.7399 2.93452 52.7399 3.88803 52.1526 4.47608L46.8171 9.81515C46.5241 10.1099 46.1396 10.2558 45.7551 10.2558ZM39.5002 7.70358C39.3365 7.70358 39.1683 7.67501 39.0046 7.61786C38.2219 7.34414 37.8089 6.48688 38.0823 5.70181L39.5393 1.53132C39.8142 0.747759 40.6689 0.334169 41.453 0.607891C42.2356 0.881612 42.6487 1.73887 42.3753 2.52394L40.9182 6.69443C40.7019 7.31556 40.1206 7.70358 39.5002 7.70358ZM48.7277 16.3875C48.1089 16.3875 47.5291 16.0009 47.3113 15.3843C47.0349 14.6008 47.4464 13.742 48.2275 13.4653L51.9738 12.1403C52.7579 11.862 53.6141 12.2756 53.8905 13.0577C54.1669 13.8413 53.7553 14.7 52.9742 14.9767L49.228 16.3017C49.0612 16.3604 48.893 16.3875 48.7277 16.3875Z" fill="#FA3E64"/>
<path d="M53.1083 36.2975C52.1154 34.7454 52.7718 32.5692 52.5946 30.1373C52.4594 26.1759 50.8927 22.2881 47.7052 19.1133L36.8479 8.30127C36.8479 8.30127 34.7089 6.17015 32.5774 8.3133C30.4489 10.4549 32.5894 12.5876 32.5894 12.5876L37.1769 17.1581L41.1515 21.1165C41.1515 21.1165 40.0849 22.1873 35.6853 17.8048C31.2825 13.4208 20.8233 2.99829 20.8233 2.99829C20.8233 2.99829 18.6828 0.86718 16.5528 3.01033C14.4228 5.15197 16.5633 7.28308 16.5633 7.28308L30.6171 21.285C30.5871 21.2549 29.4845 22.2881 29.465 22.2686L14.4288 7.2891C14.4288 7.2891 12.2883 5.15648 10.1583 7.29963C8.02978 9.44277 10.1688 11.5739 10.1688 11.5739L25.2065 26.5564C25.2245 26.5744 24.185 27.6708 24.2151 27.7009L11.2443 14.7773C11.2443 14.7773 9.1038 12.6462 6.9738 14.7894C4.8438 16.9325 6.98431 19.0651 6.98431 19.0651L20.7752 32.8038C20.9014 32.9286 19.9791 34.1439 20.1368 34.3018L10.1988 24.4012C10.1988 24.4012 8.05832 22.2701 5.92832 24.4132C3.79832 26.5564 5.93884 28.689 5.93884 28.689L22.1467 44.8295C24.8535 47.5261 27.6775 48.9383 31.1203 49.5384C31.8218 49.6602 32.7231 49.6903 33.0896 49.749C34.2507 49.9355 35.2602 50.3851 36.6045 51.274C38.332 52.4155 40.9637 52.9554 42.5394 51.3793L47.9125 46.0011L52.8725 41.035C54.4482 39.4558 54.2244 38.0421 53.1083 36.2975Z" fill="url(#paint1_linear_2208_2980)"/>
<defs>
<linearGradient id="paint0_linear_2208_2980" x1="5.9578" y1="12.564" x2="51.7919" y2="33.5768" gradientUnits="userSpaceOnUse">
<stop stop-color="#F9C6D6"/>
<stop offset="1" stop-color="#E68D93"/>
</linearGradient>
<linearGradient id="paint1_linear_2208_2980" x1="9.71553" y1="11.0623" x2="45.8106" y2="47.1131" gradientUnits="userSpaceOnUse">
<stop stop-color="#FFDAD7"/>
<stop offset="1" stop-color="#FABBB5"/>
</linearGradient>
</defs>
</svg>
