<svg width="18" height="18" viewBox="0 0 18 18" fill="none" xmlns="http://www.w3.org/2000/svg">
<path fill-rule="evenodd" clip-rule="evenodd" d="M9 18C13.9706 18 18 13.9706 18 9C18 4.02942 13.9706 0 9 0C4.02945 0 0 4.02942 0 9C0 13.9706 4.02945 18 9 18ZM9.60001 3C9.60001 2.66864 9.33136 2.40002 9 2.40002C8.66864 2.40002 8.39999 2.66864 8.39999 3V8.68176C8.39999 9.1637 8.61725 9.62 8.99139 9.92383L12.1218 12.4658C12.379 12.6747 12.7569 12.6354 12.9658 12.3782C13.1747 12.121 13.1355 11.7431 12.8782 11.5342L9.74786 8.99225C9.65433 8.91632 9.60001 8.80225 9.60001 8.68176V3Z" fill="#8593B0"/>
</svg>
