<svg width="57" height="57" viewBox="0 0 57 57" fill="none" xmlns="http://www.w3.org/2000/svg">
<g clip-path="url(#clip0_247_3208)">
<path d="M31.415 2.61413C31.415 1.17038 30.2476 0 28.8075 0C27.3674 0 26.2 1.17038 26.2 2.61413V11.8637C26.2 13.3075 27.3674 14.4779 28.8075 14.4779C30.2476 14.4779 31.415 13.3075 31.415 11.8637V2.61413Z" fill="url(#paint0_linear_247_3208)"/>
<path d="M31.415 45.1363C31.415 43.6925 30.2476 42.5222 28.8075 42.5222C27.3674 42.5222 26.2 43.6925 26.2 45.1363V54.3859C26.2 55.8296 27.3674 57 28.8075 57C30.2476 57 31.415 55.8296 31.415 54.3859V45.1363Z" fill="url(#paint1_linear_247_3208)"/>
<path d="M54.39 30.8136C55.8315 30.8136 57 29.6444 57 28.202C57 26.7597 55.8315 25.5904 54.39 25.5904H45.155C43.7135 25.5904 42.545 26.7597 42.545 28.202C42.545 29.6444 43.7135 30.8136 45.155 30.8136H54.39Z" fill="#5623D5"/>
<path d="M11.845 30.8136C13.2865 30.8136 14.455 29.6444 14.455 28.202C14.455 26.7597 13.2865 25.5904 11.845 25.5904H2.61002C1.16855 25.5904 1.90735e-05 26.7597 1.90735e-05 28.202C1.90735e-05 29.6444 1.16855 30.8136 2.61002 30.8136H11.845Z" fill="url(#paint2_linear_247_3208)"/>
<path d="M48.834 11.7021C49.8533 10.6812 49.8541 9.02682 48.8358 8.00692C47.8175 6.98701 46.1657 6.9878 45.1465 8.00868L38.6163 14.5491C37.5971 15.57 37.5963 17.2244 38.6146 18.2443C39.6329 19.2642 41.2846 19.2634 42.3039 18.2425L48.834 11.7021Z" fill="url(#paint3_linear_247_3208)"/>
<path d="M18.7199 41.8597C19.7392 40.8388 19.74 39.1844 18.7217 38.1645C17.7034 37.1446 16.0517 37.1454 15.0324 38.1663L8.50225 44.7067C7.48298 45.7276 7.48219 47.382 8.50048 48.4019C9.51878 49.4218 11.1705 49.421 12.1898 48.4001L18.7199 41.8597Z" fill="url(#paint4_linear_247_3208)"/>
<path d="M15.2827 18.2365C16.302 19.2574 17.9537 19.2582 18.972 18.2383C19.9903 17.2184 19.9895 15.564 18.9702 14.5431L12.4401 8.00268C11.4208 6.9818 9.76908 6.981 8.75079 8.00091C7.73249 9.02081 7.73329 10.6752 8.75256 11.6961L15.2827 18.2365Z" fill="url(#paint5_linear_247_3208)"/>
<path d="M45.3987 48.3991C46.4179 49.42 48.0697 49.4208 49.088 48.4009C50.1063 47.381 50.1055 45.7266 49.0862 44.7057L42.5561 38.1653C41.5368 37.1444 39.885 37.1436 38.8668 38.1635C37.8485 39.1834 37.8493 40.8378 38.8685 41.8587L45.3987 48.3991Z" fill="#591CD5"/>
</g>
<defs>
<linearGradient id="paint0_linear_247_3208" x1="28.8075" y1="0" x2="28.8075" y2="14.4779" gradientUnits="userSpaceOnUse">
<stop stop-color="#3193E0"/>
<stop offset="1" stop-color="#3B76DD"/>
</linearGradient>
<linearGradient id="paint1_linear_247_3208" x1="28.8075" y1="42.5222" x2="28.8075" y2="57" gradientUnits="userSpaceOnUse">
<stop stop-color="#4F38D7"/>
<stop offset="1" stop-color="#581DD5"/>
</linearGradient>
<linearGradient id="paint2_linear_247_3208" x1="14.455" y1="28.202" x2="1.90735e-05" y2="28.202" gradientUnits="userSpaceOnUse">
<stop stop-color="#3A78DD"/>
<stop offset="1" stop-color="#3291E0"/>
</linearGradient>
<linearGradient id="paint3_linear_247_3208" x1="49" y1="8" x2="40.2556" y2="6.95845" gradientUnits="userSpaceOnUse">
<stop stop-color="#445BDA"/>
<stop offset="1" stop-color="#4557DA"/>
</linearGradient>
<linearGradient id="paint4_linear_247_3208" x1="19" y1="37.5" x2="9.31471" y2="36.8242" gradientUnits="userSpaceOnUse">
<stop stop-color="#4459DA"/>
<stop offset="1" stop-color="#4655DA"/>
</linearGradient>
<linearGradient id="paint5_linear_247_3208" x1="10" y1="8" x2="18.2949" y2="7.00034" gradientUnits="userSpaceOnUse">
<stop stop-color="#2AA7E2"/>
<stop offset="1" stop-color="#3683DE"/>
</linearGradient>
<clipPath id="clip0_247_3208">
<rect width="57" height="57" fill="white"/>
</clipPath>
</defs>
</svg>
