<svg width="181" height="25" viewBox="0 0 181 25" fill="currentColor" xmlns="http://www.w3.org/2000/svg">
<path d="M15.443 24.6566L7.67683 15.7946H6.93867V22.7882C6.93867 23.8201 6.10219 24.6566 5.07033 24.6566H1.86834C0.836484 24.6566 0 23.8201 0 22.7882V2.49529C0 1.46344 0.836484 0.626953 1.86834 0.626953H10.9542C12.962 0.626953 14.6598 0.967798 16.0623 1.63529C17.45 2.30278 18.513 3.2259 19.2216 4.39046C19.9302 5.55501 20.2845 6.87579 20.2845 8.32439C20.2845 9.9576 19.8121 11.392 18.882 12.6418C17.952 13.8773 16.579 14.7578 14.7927 15.2833L20.4278 21.5376C21.5109 22.7397 20.6578 24.6566 19.0397 24.6566H12.6668H15.443ZM6.93867 11.2216H10.3785C11.3233 11.2216 12.032 11.0085 12.5044 10.5683C12.9768 10.1422 13.213 9.51735 13.213 8.69363C13.213 7.92673 12.9768 7.31605 12.4896 6.87579C12.0024 6.43553 11.3086 6.2083 10.3785 6.2083H6.93867V11.2216Z" fill="#0028FD"/>
<path d="M42.2931 16.4498H29.1539C29.2277 17.5007 29.523 18.2676 30.0545 18.7789C30.5859 19.2902 31.265 19.5458 32.0918 19.5458C32.8145 19.5458 33.4094 19.35 33.8762 18.9548C34.4173 18.4969 35.0201 18.0404 35.729 18.0404H39.6254C40.8298 18.0404 41.7269 19.1829 41.1355 20.232C40.8712 20.7009 40.5586 21.1448 40.1967 21.5625C39.311 22.585 38.189 23.4087 36.8455 24.0052C35.5021 24.6017 34.011 24.8857 32.387 24.8857C30.4236 24.8857 28.6815 24.4881 27.1609 23.6928C25.6403 22.8975 24.4445 21.7613 23.5882 20.2843C22.732 18.8073 22.2891 17.0747 22.2891 15.0722C22.2891 13.0698 22.7172 11.3371 23.5587 9.87432C24.415 8.41153 25.596 7.27537 27.1166 6.48007C28.6372 5.68476 30.394 5.28711 32.3723 5.28711C34.3505 5.28711 36.0631 5.67056 37.5837 6.45166C39.1043 7.23277 40.2706 8.32632 41.1268 9.77491C41.9831 11.2235 42.3965 12.9135 42.3965 14.8734C42.3965 15.3989 42.3669 15.9243 42.2931 16.4356V16.4498ZM35.3101 13.2118C35.3101 12.3881 35.0297 11.749 34.4539 11.2803C33.8929 10.8116 33.1843 10.5844 32.328 10.5844C31.4717 10.5844 30.7779 10.8116 30.2316 11.2519C29.6854 11.6922 29.3311 12.3455 29.1687 13.2118H35.2954H35.3101Z" fill="#0028FD"/>
<path d="M45.2157 9.90025C45.9539 8.42325 46.9726 7.28709 48.257 6.49179C49.5413 5.69648 50.9734 5.29883 52.5678 5.29883C53.9408 5.29883 55.1218 5.55446 56.1109 6.07993C57.1001 6.6054 57.8677 7.3013 58.414 8.19602V7.4086C58.414 6.37674 59.2505 5.54026 60.2823 5.54026H63.4843C64.5162 5.54026 65.3527 6.37674 65.3527 7.4086V22.7877C65.3527 23.8195 64.5162 24.656 63.4843 24.656H60.2823C59.2505 24.656 58.414 23.8195 58.414 22.7877V22.0003C57.8677 22.8808 57.1001 23.5909 56.0962 24.1163C55.0923 24.6418 53.9112 24.8975 52.5678 24.8975C50.9881 24.8975 49.5561 24.4998 48.257 23.7045C46.9578 22.9092 45.9539 21.773 45.2157 20.2818C44.4776 18.7906 44.0938 17.058 44.0938 15.0839C44.0938 13.1099 44.4628 11.3772 45.2157 9.90025ZM56.4305 12.4958C55.7367 11.7857 54.8804 11.4448 53.8618 11.4448C52.8431 11.4448 51.9573 11.7857 51.2782 12.4816C50.5991 13.1775 50.2448 14.1432 50.2448 15.393C50.2448 16.6427 50.5843 17.5943 51.2782 18.3044C51.9721 19.0144 52.8283 19.3837 53.8618 19.3837C54.8952 19.3837 55.7367 19.0287 56.4305 18.3328C57.1244 17.6227 57.4787 16.6569 57.4787 15.4072C57.4787 14.1574 57.1244 13.2201 56.4305 12.51V12.4958Z" fill="#0028FD"/>
<path d="M69.4649 9.90025C70.3212 8.42325 71.5022 7.28709 73.0229 6.49179C74.5435 5.69648 76.2855 5.29883 78.249 5.29883C80.7735 5.29883 82.8994 5.96632 84.6267 7.2871C85.783 8.18081 86.6615 9.30365 87.2665 10.6642C87.7486 11.7484 86.8475 12.8542 85.6608 12.8542H81.9312C81.1327 12.8542 80.4857 12.2857 79.939 11.7038C79.4853 11.221 78.8777 10.9796 78.1161 10.9796C77.2451 10.9796 76.5512 11.3204 76.0493 12.0163C75.5474 12.7122 75.2816 13.7206 75.2816 15.0697C75.2816 16.4189 75.5326 17.4273 76.0493 18.1374C76.5512 18.8474 77.2451 19.1883 78.1161 19.1883C78.8803 19.1883 79.4858 18.9565 79.9324 18.493C80.4966 17.9075 81.1484 17.3136 81.9615 17.3136H85.6551C86.8436 17.3136 87.7444 18.4226 87.2578 19.5069C86.6531 20.8544 85.7775 21.9771 84.6267 22.8666C82.8994 24.2016 80.7735 24.8833 78.249 24.8833C76.2855 24.8833 74.5435 24.4856 73.0229 23.6903C71.5022 22.895 70.3064 21.7588 69.4649 20.2818C68.6234 18.8048 68.1953 17.0722 68.1953 15.0697C68.1953 13.0673 68.6234 11.363 69.4649 9.88604V9.90025Z" fill="#0028FD"/>
<path d="M100.704 18.9627C101.736 18.9627 102.572 19.7992 102.572 20.8311V22.7893C102.572 23.8212 101.736 24.6577 100.704 24.6577H99.5606C94.4821 24.6577 91.9429 22.2434 91.9429 17.4005V11.0949H91.3605C90.3287 11.0949 89.4922 10.2584 89.4922 9.22653V7.41027C89.4922 6.37841 90.3287 5.54193 91.3605 5.54193H91.9429V2.78045C91.9429 1.74859 92.7793 0.912109 93.8112 0.912109H97.0575C98.0893 0.912109 98.9258 1.74859 98.9258 2.78045V5.54193H100.674C101.706 5.54193 102.543 6.37841 102.543 7.41027V9.22653C102.543 10.2584 101.706 11.0949 100.674 11.0949H98.9258V17.4999C98.9258 18.0254 99.0439 18.3947 99.2949 18.6219C99.5459 18.8491 99.9592 18.9627 100.55 18.9627H100.704Z" fill="#0028FD"/>
<path d="M112.946 10.2572C112.208 9.60395 111.824 8.78024 111.824 7.78611C111.824 6.79197 112.193 5.95406 112.946 5.30077C113.699 4.64748 114.674 4.30664 115.899 4.30664C117.124 4.30664 118.084 4.63328 118.822 5.30077C119.56 5.96826 119.944 6.79197 119.944 7.78611C119.944 8.78024 119.575 9.57555 118.822 10.243C118.069 10.9105 117.109 11.2372 115.899 11.2372C114.688 11.2372 113.684 10.9105 112.946 10.2714V10.2572ZM112.946 23.9621C112.208 23.3088 111.824 22.4851 111.824 21.4909C111.824 20.4968 112.193 19.6589 112.946 19.0056C113.684 18.3523 114.674 18.0115 115.899 18.0115C117.124 18.0115 118.084 18.3381 118.822 19.0056C119.56 19.6589 119.944 20.4968 119.944 21.4909C119.944 22.4851 119.575 23.2804 118.822 23.9479C118.084 24.6012 117.109 24.942 115.899 24.942C114.688 24.942 113.684 24.6154 112.946 23.9763V23.9621Z" fill="#0028FD"/>
<path d="M181.002 22.7882C181.002 23.8201 180.165 24.6566 179.134 24.6566H175.046C174.431 24.6566 173.855 24.3539 173.506 23.8471L164.821 11.2216V22.7882C164.821 23.8201 163.985 24.6566 162.953 24.6566H159.751C158.719 24.6566 157.883 23.8201 157.883 22.7882V2.49529C157.883 1.46344 158.719 0.626953 159.751 0.626953H163.832C164.451 0.626953 165.03 0.933483 165.377 1.44548L174.063 14.2324V2.49529C174.063 1.46343 174.9 0.626953 175.932 0.626953H179.134C180.165 0.626953 181.002 1.46344 181.002 2.49529V22.7882Z" fill="#0028FD"/>
</svg>
