<svg width="36" height="37" viewBox="0 0 36 37" fill="currentColor" xmlns="http://www.w3.org/2000/svg">
<path d="M27.4791 25.1494L24.6328 27.9954L19.6509 23.0139L22.4971 20.168L27.4791 25.1494Z" fill="#9AAAB4"/>
<path d="M34.8212 29.6543L28.9043 23.7379C28.1182 22.9519 26.8441 22.9519 26.058 23.7379L23.2118 26.5839C22.4257 27.3698 22.4257 28.6439 23.2118 29.4299L29.1287 35.3462C30.7008 36.9192 33.2512 36.9192 34.8232 35.3462C36.3933 33.7753 36.3923 31.2262 34.8212 29.6543Z" fill="#66757F"/>
<path d="M13.587 27.6951C21.0909 27.6951 27.1741 21.6125 27.1741 14.1092C27.1741 6.60601 21.0909 0.523438 13.587 0.523438C6.08301 0.523438 -0.000152588 6.60601 -0.000152588 14.1092C-0.000152588 21.6125 6.08301 27.6951 13.587 27.6951Z" fill="#8899A6"/>
<path d="M13.5872 23.6755C18.8678 23.6755 23.1485 19.3951 23.1485 14.1151C23.1485 8.83502 18.8678 4.55469 13.5872 4.55469C8.30663 4.55469 4.02589 8.83502 4.02589 14.1151C4.02589 19.3951 8.30663 23.6755 13.5872 23.6755Z" fill="url(#paint0_linear_2208_3205)"/>
<path d="M16.3245 8.8378C18.4964 9.07249 19.5141 11.9195 19.9165 14.1366C20.0594 14.9239 20.9272 15.4094 21.6368 15.0397C21.7012 15.0061 21.7635 14.9676 21.8149 14.9163C22.5821 14.1503 22.0087 12.2925 21.6118 11.4333C21.3503 10.7302 20.5335 8.89701 18.9884 7.60702C17.5956 6.4442 16.649 5.83614 15.5943 6.22828C14.5395 6.62041 14.3231 8.62154 16.3245 8.8378Z" fill="#FDFDFD"/>
<defs>
<linearGradient id="paint0_linear_2208_3205" x1="3.52266" y1="14.6182" x2="24.6581" y2="12.1019" gradientUnits="userSpaceOnUse">
<stop stop-color="#BBDDF5"/>
<stop offset="1" stop-color="#E1F2FF"/>
</linearGradient>
</defs>
</svg>
