<svg width="42" height="55" viewBox="0 0 42 55" fill="currentColor" xmlns="http://www.w3.org/2000/svg">
<path d="M29.1484 31.9359L26.5231 21.616L20.5021 8.35373C19.7363 6.4026 20.7202 4.20775 22.6988 3.45408C24.6758 2.69288 26.9029 3.6692 27.6687 5.62034L37.1312 29.3424L29.1484 31.9359Z" fill="url(#paint0_linear_2208_2964)"/>
<path d="M41.8829 28.1984C41.1385 24.3157 38.8503 18.3856 38.8503 18.3856L30.0224 2.60648C29.0675 0.738082 26.7549 -0.0110817 24.8618 0.929134C22.9671 1.87085 22.2044 4.14994 23.1609 6.01833L31.2916 20.3803C31.3114 20.4134 33.4471 28.6407 33.4471 28.6407C31.8026 27.1439 29.4702 25.0919 27.3223 23.198C22.5964 19.0279 19.7926 17.4649 19.7926 17.4649C18.7095 16.7985 17.9941 16.7037 16.5403 17.3761L7.58279 21.2393C7.34329 21.3566 7.1404 21.5221 6.98023 21.7342L3.45182 26.3766C2.08958 27.9818 2.30467 30.3707 3.93235 31.7126C5.55849 33.0559 7.97941 32.8408 9.3447 31.2402C9.41793 31.1529 12.06 27.3891 12.298 27.2687C13.8799 26.4669 16.821 25.0919 18.107 25.1325C19.4753 25.1762 27.6885 34.0939 27.6885 34.0939C28.0027 34.4836 28.0393 35.0236 27.78 35.4509L23.3332 43.3156C23.2127 43.5126 23.0388 43.6706 22.8298 43.7714L18.7507 46.0279C18.5158 46.1407 18.2504 46.1768 17.9941 46.1287L9.95489 42.7108C9.55522 42.5408 9.22267 42.2294 9.05182 41.8338C7.85127 39.0508 7.68194 36.3896 7.68042 36.3595C7.58126 34.2684 5.78274 32.6543 3.66234 32.7521C1.54651 32.8363 -0.0948892 34.622 0.0042662 36.713C0.0240973 37.1086 0.539705 45.1975 7.21515 50.6914C11.0715 53.8625 15.8401 55.0901 21.9344 54.2822C28.9698 53.3511 33.3281 52.4274 39.4864 39.9037C41.1904 36.4362 42.3894 30.8415 41.8829 28.1984Z" fill="#FFDAD7"/>
<defs>
<linearGradient id="paint0_linear_2208_2964" x1="26.6973" y1="18.5708" x2="32.0251" y2="17.0272" gradientUnits="userSpaceOnUse">
<stop stop-color="#FFC9D9"/>
<stop offset="1" stop-color="#F5A4B0"/>
</linearGradient>
</defs>
</svg>
