<svg width="71" height="84" viewBox="0 0 71 84" fill="none" xmlns="http://www.w3.org/2000/svg">
<path d="M48.2986 29.5825C48.2986 29.5825 64.9991 36.7599 69.2176 48.5725C70.76 52.8963 71.1379 55.6171 70.9592 57.317C70.7549 59.2416 68.6507 60.3289 66.9245 59.456C65.9694 58.9761 64.3964 58.2461 62.1289 57.3834C56.6795 55.316 49.034 55.8009 49.034 55.8009C49.034 55.8009 46.1127 32.4667 48.3037 29.5774L48.2986 29.5825Z" fill="#403C9C"/>
<mask id="mask0_247_3156" style="mask-type:luminance" maskUnits="userSpaceOnUse" x="47" y="29" width="24" height="31">
<path d="M48.2986 29.5825C48.2986 29.5825 64.9991 36.7599 69.2176 48.5725C70.76 52.8963 71.1379 55.6171 70.9592 57.317C70.7549 59.2416 68.6507 60.3289 66.9245 59.456C65.9694 58.9761 64.3964 58.2461 62.1289 57.3834C56.6795 55.316 49.034 55.8009 49.034 55.8009C49.034 55.8009 46.1127 32.4667 48.3037 29.5774L48.2986 29.5825Z" fill="white"/>
</mask>
<g mask="url(#mask0_247_3156)">
<path d="M49.4171 40.3486C49.4171 40.3486 61.5415 44.0802 62.1237 57.3834L47.4866 57.5978L49.4171 40.3434V40.3486Z" fill="#2C1F7B"/>
</g>
<path d="M10.2246 50.3847C10.2246 50.3847 8.22767 68.4456 16.4247 77.9405C19.4277 81.4169 21.6034 83.0862 23.1713 83.7703C24.9435 84.5462 26.9302 83.2496 27.0272 81.3148C27.0783 80.2479 27.2213 78.5174 27.589 76.1232C28.4776 70.365 32.6757 63.9584 32.6757 63.9584C32.6757 63.9584 13.8149 49.9048 10.2195 50.3796L10.2246 50.3847Z" fill="#403C9C"/>
<path d="M9.95388 5.00785C8.76901 4.88023 7.64543 5.5847 7.25218 6.70776C4.92331 13.3287 -1.68538 35.8666 10.0969 50.5787C21.1641 64.3975 31.5828 65.7502 31.5828 65.7502C31.5828 65.7502 38.0178 56 49.034 55.806C49.034 55.806 52.752 39.1081 47.9309 28.7249C43.1761 18.4897 34.8769 7.66747 9.95898 5.00785H9.95388Z" fill="#4876FC"/>
<mask id="mask1_247_3156" style="mask-type:luminance" maskUnits="userSpaceOnUse" x="3" y="4" width="48" height="62">
<path d="M9.95388 5.00785C8.76901 4.88023 7.64543 5.5847 7.25218 6.70776C4.92331 13.3287 -1.68538 35.8666 10.0969 50.5787C21.1641 64.3975 31.5828 65.7502 31.5828 65.7502C31.5828 65.7502 38.0178 56 49.034 55.806C49.034 55.806 52.752 39.1081 47.9309 28.7249C43.1761 18.4897 34.8769 7.66747 9.95898 5.00785H9.95388Z" fill="white"/>
</mask>
<g mask="url(#mask1_247_3156)">
<path d="M0 7.50921C0 7.50921 44.0137 15.049 42.5173 44.6673C41.5009 64.7701 38.7686 69.0326 38.7686 69.0326L59.2433 68.9816L56.2403 14.656L27.829 0L4.99482 2.22571L0 7.50921Z" fill="#4A4AFB"/>
</g>
<path d="M26.8434 46.2497C32.8541 46.2497 37.7268 41.3793 37.7268 35.3713C37.7268 29.3633 32.8541 24.4929 26.8434 24.4929C20.8326 24.4929 15.96 29.3633 15.96 35.3713C15.96 41.3793 20.8326 46.2497 26.8434 46.2497Z" fill="#9BDCFF"/>
<path d="M42.4611 61.7174C41.358 62.233 40.3263 62.8915 39.407 63.693C37.0679 65.7349 33.2375 70.0383 36.3529 74.3417C40.6481 80.2786 51.2761 81.1362 53.1504 80.1969C55.0248 79.2576 57.7878 70.7019 56.1994 65.5154C54.8409 61.0946 51.8839 59.3998 48.5182 59.8184C45.9544 60.14 43.8605 61.0589 42.456 61.7123L42.4611 61.7174Z" fill="#FFB66A"/>
<mask id="mask2_247_3156" style="mask-type:luminance" maskUnits="userSpaceOnUse" x="35" y="59" width="22" height="22">
<path d="M42.4611 61.7174C41.358 62.233 40.3263 62.8915 39.407 63.693C37.0679 65.7349 33.2375 70.0383 36.3529 74.3417C40.6481 80.2786 51.2761 81.1362 53.1504 80.1969C55.0248 79.2576 57.7878 70.7019 56.1994 65.5154C54.8409 61.0946 51.8839 59.3998 48.5182 59.8184C45.9544 60.14 43.8605 61.0589 42.456 61.7123L42.4611 61.7174Z" fill="white"/>
</mask>
<g mask="url(#mask2_247_3156)">
<path d="M39.5143 62.7537C39.5143 62.7537 51.1485 60.9874 50.6684 69.4104C50.1883 77.8334 47.5377 80.881 47.5377 80.881L56.2812 80.5236H57.1647L57.0064 59.1446L39.1926 59.7623L39.5143 62.7537Z" fill="#FFA559"/>
</g>
</svg>
