<svg width="54" height="55" viewBox="0 0 54 55" fill="currentColor" xmlns="http://www.w3.org/2000/svg">
<path d="M27 0.523438C12.09 0.523438 0 12.6134 0 27.5234C0 36.5999 4.494 44.6114 11.361 49.5059C11.517 39.8489 8.0055 29.0234 2.106 29.0234C1.41 29.0234 0.846 29.1224 0.3765 29.2979C0.831 28.1624 1.8165 27.5234 3.66 27.5234C10.065 27.5234 13.659 40.2824 12.798 50.4554C16.929 53.0189 21.783 54.5234 27 54.5234C32.2185 54.5234 37.074 53.0174 41.205 50.4539C40.3395 40.2434 43.932 27.5234 50.3415 27.5234C52.191 27.5234 53.1795 28.1624 53.6295 29.2979C53.1585 29.1224 52.593 29.0234 51.894 29.0234C45.987 29.0234 42.477 39.8219 42.639 49.5059C49.5075 44.6114 54 36.5999 54 27.5234C54 12.6134 41.9115 0.523438 27 0.523438Z" fill="#FFCC4D"/>
<path d="M27 0.523438C12.09 0.523438 0 12.6134 0 27.5234C0 29.3114 0.1845 31.0574 0.516 32.7494C0.867 31.4549 1.416 30.2129 2.103 29.0234C1.4085 29.0234 0.846 29.1224 0.378 29.2979C0.774 28.3094 1.611 27.7259 3.03 27.5849C7.518 21.3164 16.5555 17.0234 27 17.0234C37.446 17.0234 46.482 21.3149 50.97 27.5834C52.395 27.7244 53.235 28.3064 53.628 29.2979C53.16 29.1224 52.5945 29.0234 51.8985 29.0234C52.5855 30.2129 53.133 31.4549 53.4855 32.7494C53.817 31.0574 54 29.3114 54 27.5234C54 12.6134 41.9115 0.523438 27 0.523438Z" fill="#BDDDF4"/>
<path d="M11.0209 18.3965C9.60193 23.1605 11.1814 27.836 14.5504 28.8395C17.9194 29.8445 21.8014 26.7965 23.2189 22.0325C24.6379 17.27 23.0599 12.593 19.6924 11.5895C16.3234 10.586 12.4414 13.634 11.0209 18.3965ZM42.9784 18.3965C44.3974 23.1605 42.8179 27.836 39.4504 28.8395C36.0814 29.8445 32.1994 26.7965 30.7819 22.0325C29.3629 17.27 30.9424 12.593 34.3084 11.5895C37.6759 10.586 41.5579 13.634 42.9784 18.3965Z" fill="#F5F8FA"/>
<path d="M27 27.5234C22.8645 27.5234 19.5 30.8879 19.5 35.0234V44.0234C19.5 48.1589 22.8645 51.5234 27 51.5234C31.1355 51.5234 34.5 48.1589 34.5 44.0234V35.0234C34.5 30.8879 31.1355 27.5234 27 27.5234Z" fill="#664500"/>
<path d="M2.10722 29.0254C1.41122 29.0254 0.847217 29.1244 0.377717 29.2999C0.485717 29.0314 0.628217 28.7959 0.799217 28.5859C-1.99378 32.0224 4.27472 43.3354 1.22822 54.5254H10.9182C12.7032 44.0854 9.06572 29.0254 2.10722 29.0254ZM53.6307 29.2999C53.1597 29.1244 52.5942 29.0254 51.8952 29.0254C44.9337 29.0254 41.2977 44.0284 43.0857 54.5254H52.7757C49.9167 43.9579 55.2597 33.3919 53.6307 29.2999Z" fill="#FCAB40"/>
</svg>
