<svg width="32" height="33" viewBox="0 0 32 33" fill="currentColor" xmlns="http://www.w3.org/2000/svg">
<g filter="url(#filter0_d_2445_10727)">
<path d="M17.2936 0.523438C17.6464 0.523438 17.962 0.743035 18.0808 1.07183L18.9279 3.42021C19.2311 3.49541 19.4927 3.57221 19.7127 3.65061C19.9527 3.73621 20.2647 3.86821 20.6487 4.0466L22.6214 3.00261C22.7823 2.91691 22.9668 2.8859 23.1469 2.91426C23.327 2.94262 23.493 3.02881 23.6198 3.15981L25.3549 4.9538C25.5853 5.19259 25.6501 5.54179 25.5205 5.84659L24.5953 8.01497C24.7481 8.29656 24.8713 8.53816 24.9649 8.73976C25.0657 8.95816 25.1905 9.26216 25.3393 9.65175L27.4956 10.5757C27.8196 10.7137 28.02 11.0377 27.9984 11.3845L27.84 13.8745C27.8292 14.0363 27.7711 14.1913 27.673 14.3204C27.5749 14.4494 27.441 14.5468 27.288 14.6005L25.2457 15.3265C25.1873 15.6081 25.1257 15.8505 25.0609 16.0537C24.9561 16.3686 24.8367 16.6785 24.7033 16.9825L25.7293 19.2505C25.8023 19.4097 25.8221 19.5882 25.7858 19.7596C25.7495 19.931 25.659 20.0861 25.5277 20.2021L23.5766 21.9444C23.4483 22.0592 23.2879 22.1317 23.1171 22.1523C22.9463 22.1729 22.7732 22.1406 22.6214 22.0596L20.6103 20.994C20.2959 21.1613 19.9713 21.3084 19.6383 21.4344L18.7599 21.7632L17.98 23.9232C17.9216 24.081 17.8172 24.2177 17.6803 24.3155C17.5433 24.4132 17.3802 24.4676 17.212 24.4716L14.9321 24.5232C14.7593 24.5272 14.5896 24.4779 14.4459 24.3819C14.3023 24.2859 14.1917 24.1479 14.1293 23.9868L13.2101 21.5544C12.8966 21.447 12.5861 21.331 12.279 21.2064C12.0278 21.0977 11.7805 20.9805 11.5374 20.8548L9.25746 21.8292C9.10729 21.8936 8.9416 21.9128 8.78068 21.8845C8.61977 21.8561 8.47061 21.7815 8.35149 21.6696L6.66435 20.0869C6.53827 19.9698 6.45239 19.816 6.41899 19.6472C6.38559 19.4785 6.40637 19.3035 6.47836 19.1473L7.45872 17.0113C7.3288 16.7581 7.20793 16.5003 7.09633 16.2385C6.96635 15.9179 6.84629 15.5933 6.73635 15.2653L4.58842 14.6113C4.41383 14.5585 4.26155 14.4496 4.15522 14.3014C4.0489 14.1532 3.99449 13.974 4.00044 13.7917L4.08444 11.4865C4.09068 11.3362 4.13777 11.1904 4.22064 11.0648C4.30352 10.9392 4.41905 10.8386 4.55482 10.7737L6.80834 9.69135C6.91234 9.30895 7.00434 9.00976 7.08433 8.79376C7.19755 8.50366 7.32327 8.2186 7.46112 7.93937L6.48435 5.87539C6.40967 5.71876 6.38685 5.54241 6.41922 5.37193C6.45158 5.20146 6.53745 5.04574 6.66435 4.9274L8.34909 3.33621C8.46703 3.22456 8.61482 3.14949 8.77455 3.1201C8.93427 3.09071 9.0991 3.10825 9.24906 3.17061L11.5266 4.1114C11.7778 3.94421 12.0066 3.80661 12.213 3.69861C12.4585 3.56901 12.7881 3.43061 13.2017 3.28341L13.9937 1.07423C14.0528 0.912944 14.16 0.773668 14.3008 0.675181C14.4415 0.576695 14.6091 0.523733 14.7809 0.523438H17.2936ZM16.0288 8.94616C14.0285 8.94616 12.4073 10.5481 12.4073 12.5257C12.4073 14.5033 14.0285 16.1065 16.0288 16.1065C18.0292 16.1065 19.6491 14.5033 19.6491 12.5257C19.6491 10.5481 18.0292 8.94616 16.0288 8.94616Z" fill="#4D586F"/>
</g>
<defs>
<filter id="filter0_d_2445_10727" x="0" y="0.523438" width="32" height="32" filterUnits="userSpaceOnUse" color-interpolation-filters="sRGB">
<feFlood flood-opacity="0" result="BackgroundImageFix"/>
<feColorMatrix in="SourceAlpha" type="matrix" values="0 0 0 0 0 0 0 0 0 0 0 0 0 0 0 0 0 0 127 0" result="hardAlpha"/>
<feOffset dy="4"/>
<feGaussianBlur stdDeviation="2"/>
<feComposite in2="hardAlpha" operator="out"/>
<feColorMatrix type="matrix" values="0 0 0 0 0 0 0 0 0 0 0 0 0 0 0 0 0 0 0.25 0"/>
<feBlend mode="normal" in2="BackgroundImageFix" result="effect1_dropShadow_2445_10727"/>
<feBlend mode="normal" in="SourceGraphic" in2="effect1_dropShadow_2445_10727" result="shape"/>
</filter>
</defs>
</svg>
