<svg width="48" height="55" viewBox="0 0 48 55" fill="currentColor" xmlns="http://www.w3.org/2000/svg">
<path d="M48 27.2146C48 26.455 47.8201 25.7423 47.5188 25.0944C45.5084 18.5617 36.0967 19.0389 22.7092 18.7203C20.471 18.6674 21.7513 16.0051 22.5368 10.161C23.048 6.36001 20.6149 0.523438 16.5252 0.523438C9.782 0.523438 16.2688 5.8813 10.3067 19.131C7.12099 26.2104 0 22.2449 0 29.356V45.5428C0 48.3109 0.269848 50.9717 4.13467 51.4096C7.88107 51.8339 7.03854 54.5234 12.443 54.5234H39.4938C42.2492 54.5234 44.4905 52.2643 44.4905 49.4887C44.4905 48.338 44.0902 47.29 43.4441 46.4413C44.9732 45.5791 46.0226 43.9512 46.0226 42.0635C46.0226 40.9158 45.6238 39.8678 44.9792 39.0207C46.5128 38.1599 47.5652 36.5305 47.5652 34.6398C47.5652 33.2671 47.0136 32.0228 46.1246 31.1122C47.2594 30.1895 48 28.7942 48 27.2146Z" fill="#FCDAD8"/>
<path d="M30.1054 32.2461H43.0041C44.7581 32.2461 46.4042 31.3007 47.3007 29.7801C47.6695 29.1534 47.4641 28.3424 46.8405 27.9694C46.2183 27.5964 45.4133 27.8064 45.043 28.4331C44.6187 29.1564 43.8347 29.6034 43.0026 29.6034H29.7951C28.4863 29.6034 27.4219 28.5312 27.4219 27.2129C27.4219 25.8946 28.4863 24.8224 29.7951 24.8224H38.6206C39.3447 24.8224 39.9324 24.2304 39.9324 23.501C39.9324 22.7717 39.3447 22.1797 38.6206 22.1797H29.7936C27.0381 22.1797 24.7969 24.4373 24.7969 27.2129C24.7969 28.7607 25.509 30.1304 26.6034 31.0546C25.6814 31.9682 25.1072 33.2367 25.1072 34.6381C25.1072 36.1905 25.8238 37.5647 26.9242 38.4874C26.0082 39.3995 25.44 40.6634 25.44 42.0618C25.44 43.7531 26.278 45.2451 27.5523 46.1587C26.7668 47.0482 26.275 48.2064 26.275 49.487C26.275 52.2626 28.5163 54.5202 31.2717 54.5202H39.4931C41.2471 54.5202 42.8947 53.5764 43.7912 52.0557C44.1615 51.429 43.9561 50.6181 43.3339 50.2451C42.7103 49.8751 41.9052 50.079 41.5365 50.7057C41.1092 51.429 40.3251 51.8775 39.4931 51.8775H31.2717C29.963 51.8775 28.8986 50.8053 28.8986 49.487C28.8986 48.1687 29.963 47.0965 31.2717 47.0965H41.0252C42.7793 47.0965 44.4283 46.1512 45.3233 44.6305C45.6936 44.0023 45.4882 43.1913 44.8661 42.8199C44.2379 42.4408 43.4359 42.6538 43.0686 43.2804C42.6353 44.0159 41.8708 44.4538 41.0252 44.4538H30.4367C29.1279 44.4538 28.0635 43.3801 28.0635 42.0618C28.0635 40.7435 29.1279 39.6713 30.4367 39.6713H42.5664C44.3204 39.6713 45.968 38.7275 46.8645 37.2068C47.2348 36.5801 47.0294 35.7692 46.4072 35.3962C45.7821 35.0247 44.9785 35.2301 44.6097 35.8567C44.1765 36.5907 43.4119 37.0286 42.5664 37.0286H30.1054C28.7966 37.0286 27.7322 35.9564 27.7322 34.6381C27.7322 33.3198 28.7951 32.2461 30.1054 32.2461Z" fill="url(#paint0_linear_2208_2998)"/>
<defs>
<linearGradient id="paint0_linear_2208_2998" x1="36.7565" y1="36.7646" x2="23.2617" y2="38.2532" gradientUnits="userSpaceOnUse">
<stop stop-color="#FFC9D9"/>
<stop offset="1" stop-color="#F9B2C0"/>
</linearGradient>
</defs>
</svg>
