<svg width="36" height="37" viewBox="0 0 36 37" fill="currentColor" xmlns="http://www.w3.org/2000/svg">
<path d="M30.0002 22.5234C27.0001 22.5234 23.3121 29.6177 23.0001 32.5238C22.5791 36.439 25.0001 36.524 25.0001 36.524H35.0002C35.5525 36.524 36.0002 36.0763 36.0002 35.524V26.5236C36.0002 26.5236 32.5622 22.5234 30.0002 22.5234Z" fill="#50A5E6"/>
<path d="M28.9894 29.8351C30.6043 27.0379 31.2783 24.4037 30.4949 23.9513C29.7114 23.499 27.7672 25.3999 26.1523 28.197C24.5374 30.9942 23.8634 33.6284 24.6468 34.0807C25.4303 34.5331 27.3745 32.6322 28.9894 29.8351Z" fill="#1C6399"/>
<path d="M20.085 0.523438C21.266 0.523438 22.2231 1.48047 22.2231 2.66152C22.2231 3.45055 22.8911 13.4859 22.8911 13.4859L17.947 18.5241V2.66152C17.947 1.48047 18.904 0.523438 20.085 0.523438Z" fill="url(#paint0_linear_2208_3079)"/>
<path d="M18.8752 4.84454C18.8752 3.7455 19.7273 2.85547 20.7783 2.85547C21.8293 2.85547 22.6813 3.7465 22.6813 4.84454C22.6813 4.84454 23.2163 10.7868 23.8733 14.2149C24.7513 16.081 25.2423 18.8971 25.1343 20.4631C25.1883 20.8612 30.7593 25.4693 30.7593 25.4693C30.4783 27.2824 28.5003 31.6246 26.0003 33.6286L22.4793 30.7045C19.5943 30.3005 18.0212 27.3734 18.0212 26.4404C18.0212 23.4562 18.8752 4.84454 18.8752 4.84454Z" fill="#FFDAD7"/>
<path d="M5.9998 22.5234C8.99983 22.5234 12.6879 29.6177 12.9999 32.5238C13.4209 36.439 10.9998 36.524 10.9998 36.524H0.999755C0.447471 36.524 -0.000244141 36.0763 -0.000244141 35.524V26.5236C-0.000244141 26.5236 3.43778 22.5234 5.9998 22.5234Z" fill="#50A5E6"/>
<path d="M11.3503 34.0721C12.1338 33.6198 11.4598 30.9855 9.84488 28.1884C8.22999 25.3912 6.28575 23.4903 5.5023 23.9427C4.71885 24.395 5.39287 27.0293 7.00776 29.8264C8.62266 32.6236 10.5669 34.5244 11.3503 34.0721Z" fill="#1C6399"/>
<path d="M16.0617 0.534423C14.7957 0.407418 13.7287 1.39846 13.7287 2.6375C13.7287 3.41753 13.5447 12.9569 13.5447 12.9569L17.8957 18.5241L17.9577 2.75851C17.9577 1.65247 17.1627 0.644427 16.0617 0.534423Z" fill="url(#paint1_linear_2208_3079)"/>
<path d="M17.1241 4.84454C17.1241 3.7455 16.2721 2.85547 15.2211 2.85547C14.1701 2.85547 13.3181 3.7465 13.3181 4.84454C13.3181 4.84454 12.783 10.7868 12.126 14.2149C11.248 16.081 10.757 18.8971 10.865 20.4631C10.811 20.8612 5.23999 25.4693 5.23999 25.4693C5.52099 27.2824 7.49901 31.6246 9.99903 33.6286L13.5201 30.7045C16.4051 30.3005 17.9781 27.3734 17.9781 26.4404C17.9781 23.4562 17.1241 4.84454 17.1241 4.84454Z" fill="#FFDAD7"/>
<path d="M17.9998 26.3483C17.5858 26.3483 17.2498 26.0123 17.2498 25.5983V3.31643C17.2498 2.90242 17.5858 2.56641 17.9998 2.56641C18.4138 2.56641 18.7498 2.90242 18.7498 3.31643V25.5983C18.7498 26.0123 18.4138 26.3483 17.9998 26.3483Z" fill="url(#paint2_linear_2208_3079)"/>
<defs>
<linearGradient id="paint0_linear_2208_3079" x1="20.419" y1="0.523437" x2="20.419" y2="18.5241" gradientUnits="userSpaceOnUse">
<stop stop-color="#FFD3E0"/>
<stop offset="1" stop-color="#F9B4C2"/>
</linearGradient>
<linearGradient id="paint1_linear_2208_3079" x1="15.7512" y1="0.523437" x2="15.7512" y2="18.5241" gradientUnits="userSpaceOnUse">
<stop stop-color="#FFD3E0"/>
<stop offset="1" stop-color="#F9B4C2"/>
</linearGradient>
<linearGradient id="paint2_linear_2208_3079" x1="17.9998" y1="2.56641" x2="17.9998" y2="26.3483" gradientUnits="userSpaceOnUse">
<stop stop-color="#FFD3E0"/>
<stop offset="1" stop-color="#F9B4C2"/>
</linearGradient>
</defs>
</svg>
